<svg xmlns="http://www.w3.org/2000/svg" viewBox="0 0 120 120" fill="none">
  <rect width="120" height="120" rx="28" fill="#093B66"/>
  <path d="M36 66c0-16.569 13.431-30 30-30s30 13.431 30 30-13.431 30-30 30S36 82.569 36 66Z" fill="#22C55E"/>
  <path d="M60 38c11.046 0 20 8.954 20 20s-8.954 20-20 20-20-8.954-20-20 8.954-20 20-20Z" fill="white" opacity="0.85"/>
  <path d="M56 54.5c0-2.485 2.015-4.5 4.5-4.5s4.5 2.015 4.5 4.5v11c0 2.485-2.015 4.5-4.5 4.5s-4.5-2.015-4.5-4.5v-11Z" fill="#093B66"/>
</svg>
